<?xml version="1.0" standalone="no"?>
<!DOCTYPE svg PUBLIC "-//W3C//DTD SVG 20010904//EN"
 "http://www.w3.org/TR/2001/REC-SVG-20010904/DTD/svg10.dtd">
<svg version="1.0" xmlns="http://www.w3.org/2000/svg"
 width="512.000000pt" height="512.000000pt" viewBox="0 0 512.000000 512.000000"
 preserveAspectRatio="xMidYMid meet">

<g transform="translate(0.000000,512.000000) scale(0.100000,-0.100000)"
fill="#000000" stroke="none">
<path d="M2415 4469 c-258 -37 -519 -203 -655 -418 l-45 -71 -50 8 c-89 13
-275 6 -345 -12 -281 -74 -489 -301 -516 -559 l-6 -64 -57 -13 c-248 -55 -467
-259 -553 -515 -33 -100 -33 -277 1 -385 40 -130 86 -206 185 -306 98 -97 173
-143 301 -185 62 -20 95 -23 297 -27 l227 -4 5 -31 c20 -143 40 -239 67 -318
134 -400 457 -724 856 -857 153 -52 249 -66 433 -66 184 0 280 14 433 66 398
133 722 457 856 857 27 79 47 175 67 317 l5 32 237 5 c181 3 251 9 297 22 242
68 402 239 472 503 22 82 26 120 27 247 1 128 -2 161 -22 228 -74 256 -271
468 -510 551 -31 11 -36 19 -58 89 -80 253 -334 436 -605 437 -76 0 -202 -30
-271 -64 l-48 -23 -36 65 c-193 352 -589 549 -989 491z m350 -174 c87 -24 210
-86 287 -145 121 -93 211 -226 272 -400 15 -41 29 -81 31 -88 3 -9 25 4 65 40
199 180 479 183 666 6 30 -28 67 -71 83 -97 37 -58 71 -158 71 -210 l0 -39 99
-31 c209 -65 354 -205 429 -413 23 -65 26 -87 26 -213 0 -115 -4 -154 -23
-220 -45 -161 -129 -270 -261 -339 -102 -54 -173 -66 -397 -66 l-192 0 -5 33
c-21 145 -40 238 -67 318 -134 400 -457 724 -856 857 -152 51 -249 66 -433 66
-184 1 -278 -14 -433 -66 -402 -134 -721 -453 -855 -855 -29 -84 -51 -189 -67
-305 l-6 -48 -187 0 c-220 0 -290 12 -395 67 -271 142 -374 481 -230 756 98
186 289 296 517 297 l79 0 -7 38 c-17 101 -18 159 -2 222 55 217 288 380 541
380 50 0 151 -18 271 -47 17 -4 25 4 44 49 99 231 322 409 580 464 82 17 271
11 355 -11z m-22 -1110 c491 -74 886 -449 993 -945 26 -117 25 -361 0 -480
-101 -473 -463 -835 -936 -936 -119 -25 -363 -26 -480 0 -363 79 -668 312
-829 634 -230 460 -150 1001 203 1371 270 282 660 415 1049 356z"/>
<path d="M2480 2960 l0 -80 80 0 80 0 0 80 0 80 -80 0 -80 0 0 -80z"/>
<path d="M2160 2961 c-49 -21 -64 -33 -62 -46 6 -33 51 -125 61 -125 21 0 131
53 131 64 0 16 -52 136 -59 136 -3 -1 -35 -13 -71 -29z"/>
<path d="M2855 2919 c-15 -39 -23 -74 -19 -78 5 -4 37 -20 72 -34 l63 -27 13
33 c8 17 21 50 30 71 9 22 13 42 9 46 -7 6 -131 60 -137 60 -2 0 -15 -32 -31
-71z"/>
<path d="M1820 2735 l-55 -55 58 -58 57 -57 57 57 58 58 -55 55 c-30 30 -57
55 -60 55 -3 0 -30 -25 -60 -55z"/>
<path d="M3180 2735 l-55 -55 58 -58 57 -57 55 55 55 55 -58 58 -58 57 -54
-55z"/>
<path d="M1606 2419 c-43 -99 -45 -92 34 -124 39 -16 72 -26 74 -24 8 8 56
122 56 133 0 9 -34 26 -128 63 -7 3 -21 -15 -36 -48z"/>
<path d="M3435 2449 c-22 -10 -52 -23 -67 -28 l-27 -10 30 -74 31 -75 71 29
c39 16 72 31 74 32 5 6 -55 141 -64 143 -4 1 -26 -6 -48 -17z"/>
<path d="M2480 2122 c-107 -54 -104 -195 5 -243 l45 -20 400 68 c220 37 400
70 400 73 0 4 -794 142 -810 140 -3 0 -21 -8 -40 -18z"/>
<path d="M1520 2000 l0 -80 80 0 80 0 0 80 0 80 -80 0 -80 0 0 -80z"/>
<path d="M3440 2000 l0 -80 80 0 80 0 0 80 0 80 -80 0 -80 0 0 -80z"/>
<path d="M1550 1746 c0 -21 48 -153 78 -211 165 -329 502 -551 867 -572 450
-26 871 252 1030 682 12 33 25 72 29 88 l6 27 -75 0 c-63 0 -77 -3 -82 -17
-22 -66 -75 -177 -107 -226 -263 -397 -783 -512 -1199 -266 -150 88 -301 274
-362 442 l-23 62 -81 3 c-66 2 -81 0 -81 -12z"/>
</g>
</svg>
