<?xml version="1.0" standalone="no"?>
<!DOCTYPE svg PUBLIC "-//W3C//DTD SVG 20010904//EN"
 "http://www.w3.org/TR/2001/REC-SVG-20010904/DTD/svg10.dtd">
<svg version="1.0" xmlns="http://www.w3.org/2000/svg"
 width="1000.000000pt" height="1080.000000pt" viewBox="0 0 1000.000000 1080.000000"
 preserveAspectRatio="xMidYMid meet">

<g transform="translate(0.000000,1080.000000) scale(0.100000,-0.100000)"
fill="#000000" stroke="none">
<path d="M5352 9256 c-20 -85 -37 -136 -77 -231 -132 -316 -351 -699 -632
-1110 -213 -310 -251 -375 -298 -500 -81 -215 -88 -483 -19 -700 76 -236 234
-447 434 -581 165 -109 312 -162 515 -185 301 -34 629 80 853 295 110 105 172
189 232 311 120 245 148 515 79 766 -31 114 -116 279 -228 444 -296 434 -458
698 -600 980 -53 105 -107 213 -119 242 -22 51 -92 264 -109 330 -7 30 -10 25
-31 -61z m-775 -1969 c6 -455 318 -842 781 -969 111 -31 373 -31 482 -1 41 12
76 20 78 18 6 -6 -145 -95 -198 -116 -168 -67 -359 -86 -516 -51 -185 41 -321
113 -447 237 -111 107 -192 248 -239 411 -29 104 -32 325 -5 423 17 58 56 171
60 171 1 0 3 -55 4 -123z"/>
<path d="M6737 8742 c-33 -171 -138 -461 -268 -740 -21 -46 -39 -88 -39 -93 0
-4 25 -46 55 -92 106 -163 184 -340 220 -504 25 -108 31 -369 11 -483 -77
-446 -342 -805 -740 -1001 -195 -95 -384 -139 -601 -139 -110 0 -202 9 -265
24 -23 6 -27 1 -58 -70 -123 -278 -169 -517 -159 -819 9 -287 65 -509 190
-760 361 -726 1147 -1135 1952 -1016 355 53 690 210 965 454 307 272 497 606
592 1041 20 89 23 130 23 346 0 215 -3 257 -22 344 -64 290 -194 567 -409 876
-796 1139 -1296 2074 -1412 2639 l-18 84 -17 -91z m-1340 -3392 c2 -167 18
-304 49 -425 148 -572 590 -1041 1156 -1226 178 -58 291 -74 528 -74 228 0
314 11 479 59 44 12 78 19 75 15 -3 -5 -50 -38 -104 -74 -164 -108 -358 -188
-544 -223 -132 -25 -449 -24 -566 1 -304 67 -562 203 -768 407 -216 213 -357
474 -424 784 -31 144 -31 425 1 573 23 112 102 353 115 353 1 0 2 -76 3 -170z"/>
<path d="M3580 7049 c-302 -28 -574 -105 -846 -239 -748 -366 -1249 -1074
-1344 -1900 -19 -162 -8 -534 19 -680 65 -347 186 -650 369 -924 244 -366 554
-637 953 -836 236 -117 471 -187 769 -231 109 -17 466 -16 590 0 443 58 866
238 1217 517 87 69 333 309 333 324 0 4 -44 36 -97 72 -54 37 -126 92 -160
122 -33 31 -64 56 -67 56 -4 0 -37 -32 -74 -71 -263 -279 -634 -491 -1007
-574 -265 -58 -634 -60 -872 -4 -480 113 -873 368 -1180 764 -37 48 -115 173
-165 265 -82 149 -158 367 -195 559 -24 122 -27 159 -27 366 0 198 3 247 22
350 57 305 155 540 333 800 314 459 845 779 1404 846 117 13 386 14 465 0 30
-5 57 -7 59 -6 1 2 -9 53 -23 114 -15 61 -30 155 -33 210 l-6 98 -90 7 c-111
7 -235 6 -347 -5z"/>
<path d="M2636 5829 c-91 -13 -178 -59 -250 -131 -80 -81 -127 -175 -156 -318
-19 -90 -21 -127 -17 -260 8 -246 54 -380 171 -495 93 -93 175 -124 323 -125
220 0 384 126 465 360 64 184 61 495 -6 674 -60 159 -173 257 -335 292 -73 15
-107 16 -195 3z m154 -137 c72 -72 103 -231 102 -532 0 -285 -21 -415 -82
-498 -59 -82 -149 -74 -199 17 -62 114 -93 399 -73 681 14 191 36 273 91 330
33 34 44 40 81 40 36 0 48 -6 80 -38z"/>
<path d="M4068 5757 c-26 -39 -144 -223 -262 -407 -118 -184 -239 -373 -269
-420 -30 -47 -209 -326 -397 -620 -188 -294 -381 -594 -427 -667 -47 -72 -85
-135 -85 -140 0 -4 32 -31 70 -60 l71 -52 73 114 c40 63 105 165 145 227 40
62 209 327 377 588 167 261 329 513 359 560 30 47 163 254 296 461 132 207
241 380 241 385 -1 8 -132 104 -142 104 -2 0 -24 -33 -50 -73z"/>
<path d="M4090 4789 c-25 -5 -77 -24 -116 -44 -141 -69 -233 -206 -274 -405
-19 -90 -21 -127 -17 -260 7 -234 50 -366 156 -481 86 -95 193 -139 337 -139
192 0 350 102 433 281 59 127 87 296 78 474 -11 201 -61 347 -152 443 -102
110 -282 163 -445 131z m160 -125 c41 -35 64 -83 85 -176 34 -157 35 -585 0
-733 -17 -76 -53 -146 -87 -170 -36 -24 -100 -19 -132 10 -39 37 -73 117 -91
219 -36 208 -28 591 16 732 40 131 132 182 209 118z"/>
<path d="M0 400 l0 -400 5000 0 5000 0 0 400 0 400 -5000 0 -5000 0 0 -400z
m2192 123 c23 -20 23 -57 1 -74 -15 -11 -16 -11 -5 1 27 31 11 72 -33 83 -19
4 -19 5 -1 6 11 0 28 -6 38 -16z m-69 -8 c-3 -9 -8 -14 -10 -11 -3 3 -2 9 2
15 9 16 15 13 8 -4z m-1760 -114 c22 -61 43 -108 47 -104 4 4 24 56 45 116 21
59 42 107 47 107 11 0 9 -5 -42 -149 -23 -64 -44 -107 -53 -109 -15 -3 -17 0
-67 143 -15 44 -31 88 -36 99 -5 13 -3 17 6 14 8 -2 32 -55 53 -117z m517 89
c0 -23 4 -30 20 -30 11 0 20 -4 20 -10 0 -5 -10 -10 -21 -10 -20 0 -21 -4 -17
-71 3 -55 8 -74 23 -85 23 -17 14 -29 -13 -15 -11 6 -22 25 -26 42 -10 51 -7
209 4 209 6 0 10 -13 10 -30z m515 16 c25 -11 33 -19 29 -30 -7 -19 -5 -19
-40 -1 -36 18 -55 19 -78 2 -28 -21 -9 -45 49 -62 87 -25 108 -74 54 -127 -29
-29 -33 -30 -90 -25 -68 6 -72 8 -64 29 5 13 12 14 40 5 50 -15 100 1 100 33
0 16 -8 28 -25 36 -87 40 -105 51 -108 67 -14 70 53 106 133 73z m105 -16 c0
-25 4 -30 25 -30 16 0 25 -6 25 -15 0 -9 -9 -15 -25 -15 -24 0 -25 -3 -25 -60
0 -55 2 -62 25 -72 14 -6 25 -15 25 -20 0 -18 -31 -20 -55 -4 -24 16 -25 20
-25 131 0 96 3 115 15 115 10 0 15 -10 15 -30z m482 -32 l3 -62 36 32 c20 18
45 32 55 32 14 0 9 -9 -21 -40 l-39 -40 42 -60 c40 -57 41 -60 20 -60 -16 0
-32 14 -53 45 -16 25 -33 45 -37 45 -5 0 -8 -20 -8 -45 0 -38 -3 -45 -20 -45
-19 0 -20 7 -20 130 0 122 1 130 20 130 16 0 19 -8 22 -62z m193 30 c1 -20 -2
-24 -11 -17 -8 7 -14 6 -17 -3 -3 -7 -6 2 -6 20 -1 27 3 33 17 30 11 -2 17
-13 17 -30z m-44 -35 c13 -16 12 -17 -3 -4 -17 13 -22 21 -14 21 2 0 10 -8 17
-17z m-1502 -19 c12 -15 21 -40 21 -55 0 -29 0 -29 -65 -29 -72 0 -83 -12 -44
-51 17 -17 30 -20 65 -16 43 4 59 -5 28 -17 -45 -17 -106 3 -123 41 -45 98 56
206 118 127z m191 16 c17 -11 10 -13 -40 -10 -47 2 -75 -28 -75 -80 0 -55 26
-80 82 -80 27 0 42 -4 38 -10 -9 -15 -78 -12 -102 5 -50 35 -50 135 0 170 24
17 74 20 97 5z m265 -13 c20 -16 28 -35 32 -69 5 -42 3 -50 -25 -78 -41 -41
-83 -41 -124 0 -28 28 -30 36 -25 78 9 82 84 119 142 69z m85 7 c0 -14 2 -14
22 0 24 17 38 20 38 9 0 -5 -14 -16 -30 -25 -29 -17 -30 -19 -30 -93 0 -43 -4
-75 -10 -75 -6 0 -10 40 -10 100 0 60 4 100 10 100 6 0 10 -7 10 -16z m537 1
c30 -21 44 -75 32 -120 -25 -88 -143 -88 -168 0 -20 72 20 135 84 135 17 0 40
-7 52 -15z m198 -5 c0 -10 -8 -14 -27 -12 -58 6 -91 -42 -67 -100 11 -28 36
-40 74 -35 12 1 20 -4 20 -13 0 -19 -48 -25 -85 -10 -63 26 -68 148 -6 179 31
15 91 9 91 -9z m5364 -83 c8 -26 17 -47 21 -47 4 0 13 21 21 47 8 25 20 48 26
50 13 5 -22 -113 -38 -131 -12 -14 -18 -5 -45 69 -16 44 -20 65 -12 63 7 -3
19 -26 27 -51z m638 38 c2 -6 -9 -11 -23 -10 -39 0 -42 -23 -5 -36 34 -12 49
-43 31 -64 -13 -16 -38 -19 -64 -9 -27 10 -18 22 17 20 38 -1 43 19 8 37 -36
18 -48 42 -31 62 14 17 61 17 67 0z m333 -20 c0 -35 16 -47 26 -20 4 8 13 15
22 15 13 0 13 -3 -2 -19 -16 -18 -16 -21 -1 -50 19 -38 8 -40 -22 -3 l-22 27
-1 -27 c0 -16 -4 -28 -10 -28 -6 0 -10 30 -10 70 0 40 4 70 10 70 6 0 10 -16
10 -35z m580 32 c0 -4 -34 -104 -45 -136 -3 -8 -8 -11 -11 -8 -8 7 38 147 48
147 4 0 8 -2 8 -3z m98 -9 c21 -21 13 -45 -25 -77 l-38 -30 43 -1 c23 0 42 -4
42 -10 0 -5 -22 -10 -50 -10 -62 0 -65 15 -14 63 42 40 39 62 -8 53 -26 -5
-29 -4 -18 9 15 18 51 20 68 3z m112 2 c0 -5 -11 -10 -25 -10 -32 0 -32 -16
-1 -24 27 -7 41 -35 31 -65 -7 -23 -37 -35 -65 -26 -31 10 -24 23 13 21 28 -1
32 2 32 24 0 21 -4 25 -30 24 -29 -1 -30 0 -27 32 4 31 7 34 38 34 19 0 34 -4
34 -10z m110 0 c0 -5 -11 -10 -25 -10 -32 0 -32 -16 -1 -24 27 -7 41 -35 31
-65 -7 -23 -37 -35 -65 -26 -31 10 -24 23 13 21 28 -1 32 2 32 24 0 21 -4 25
-30 24 -29 -1 -30 0 -27 32 4 31 7 34 38 34 19 0 34 -4 34 -10z m108 2 c22
-14 27 -78 8 -107 -32 -49 -86 -21 -86 45 0 56 39 86 78 62z m122 -11 c-5 -11
-15 -23 -20 -26 -6 -4 -1 -14 12 -25 20 -15 21 -21 10 -44 -11 -26 -34 -32
-66 -20 -28 11 -17 24 14 18 22 -5 31 -2 36 11 6 16 -3 28 -31 39 -6 2 -5 9 3
17 18 19 15 29 -8 29 -11 0 -20 5 -20 10 0 6 18 10 40 10 37 0 40 -2 30 -19z
m102 2 c39 -35 8 -122 -44 -123 -10 0 -18 5 -18 10 0 6 9 10 20 10 10 0 24 9
31 21 9 18 8 20 -9 15 -38 -12 -68 44 -40 72 17 17 38 15 60 -5z m116 5 c21
-21 13 -45 -25 -77 l-38 -30 43 -1 c23 0 42 -4 42 -10 0 -5 -22 -10 -50 -10
-62 0 -65 15 -14 63 42 40 39 62 -8 53 -26 -5 -29 -4 -18 9 15 18 51 20 68 3z
m112 -7 c-5 -11 -15 -23 -20 -26 -6 -4 -1 -14 12 -25 20 -15 21 -21 10 -44
-11 -26 -34 -32 -66 -20 -28 11 -17 24 14 18 22 -5 31 -2 36 11 6 16 -3 28
-31 39 -6 2 -5 9 3 17 18 19 15 29 -8 29 -11 0 -20 5 -20 10 0 6 18 10 40 10
37 0 40 -2 30 -19z m-2089 -39 c-15 -5 -14 -59 2 -65 6 -2 9 -7 6 -11 -15 -17
-37 8 -41 47 -6 59 0 72 24 50 11 -10 15 -19 9 -21z m359 13 c9 -10 9 -15 1
-15 -15 0 -14 -57 2 -63 6 -2 9 -8 4 -13 -19 -20 -43 38 -38 94 1 16 16 15 31
-3z m-532 -7 c23 -23 13 -38 -24 -38 -46 0 -41 -23 7 -30 27 -4 30 -7 16 -13
-28 -11 -44 -9 -61 9 -32 31 -14 84 29 84 12 0 26 -5 33 -12z m109 5 c14 -6
10 -9 -17 -13 -29 -4 -35 -9 -35 -30 0 -21 5 -26 33 -28 36 -4 34 -22 -3 -22
-28 0 -55 24 -55 50 0 22 25 50 45 50 7 0 22 -3 32 -7z m177 -9 c21 -20 20
-43 -1 -66 -20 -22 -46 -23 -67 -2 -31 30 -9 84 34 84 10 0 26 -7 34 -16z m86
6 c0 -4 -7 -10 -15 -14 -9 -3 -15 -19 -15 -41 0 -19 -4 -35 -10 -35 -5 0 -10
22 -10 49 0 45 2 49 25 49 14 0 25 -4 25 -8z m274 -6 c21 -20 20 -43 -1 -66
-20 -22 -46 -23 -67 -2 -31 30 -9 84 34 84 10 0 26 -7 34 -16z m113 9 c14 -6
10 -9 -17 -13 -29 -4 -35 -9 -35 -30 0 -21 5 -26 33 -28 36 -4 34 -22 -3 -22
-28 0 -55 24 -55 50 0 22 25 50 45 50 7 0 22 -3 32 -7z m250 0 c14 -6 10 -9
-17 -13 -29 -4 -35 -9 -35 -30 0 -21 5 -26 33 -28 36 -4 34 -22 -3 -22 -28 0
-55 24 -55 50 0 22 25 50 45 50 7 0 22 -3 32 -7z m107 -9 c21 -20 20 -43 -1
-66 -20 -22 -46 -23 -67 -2 -31 30 -9 84 34 84 10 0 26 -7 34 -16z m116 4 c0
-9 3 -9 12 0 17 17 45 15 52 -4 10 -25 7 -84 -4 -84 -5 0 -10 18 -10 41 0 33
-3 40 -17 37 -13 -2 -19 -14 -21 -41 -4 -50 -22 -47 -22 4 0 36 -2 40 -22 37
-19 -2 -24 -10 -26 -40 -5 -55 -22 -46 -22 10 l0 49 40 1 c25 1 40 -3 40 -10z
m-330 -78 c0 -5 -4 -10 -10 -10 -5 0 -10 5 -10 10 0 6 5 10 10 10 6 0 10 -4
10 -10z"/>
<path d="M2150 500 c0 -5 5 -10 10 -10 6 0 10 5 10 10 0 6 -4 10 -10 10 -5 0
-10 -4 -10 -10z"/>
<path d="M536 418 c-28 -39 -21 -48 39 -48 59 0 67 9 45 51 -15 27 -64 25 -84
-3z"/>
<path d="M986 424 c-50 -50 -21 -144 44 -144 48 0 80 50 66 104 -13 53 -75 75
-110 40z"/>
<path d="M1616 408 c-32 -46 -8 -118 39 -118 28 0 55 34 55 70 0 36 -27 70
-55 70 -13 0 -31 -10 -39 -22z"/>
<path d="M9194 365 c-9 -38 3 -75 26 -75 13 0 22 9 26 25 9 38 -3 75 -26 75
-13 0 -22 -9 -26 -25z"/>
<path d="M9424 375 c-7 -18 3 -35 21 -35 18 0 26 15 19 34 -8 20 -33 21 -40 1z"/>
<path d="M7385 340 c-4 -6 5 -10 19 -10 14 0 26 5 26 10 0 6 -9 10 -19 10 -11
0 -23 -4 -26 -10z"/>
<path d="M7664 336 c-10 -26 4 -48 28 -44 17 2 23 10 23 28 0 18 -6 26 -23 28
-13 2 -25 -3 -28 -12z"/>
<path d="M8024 336 c-10 -26 4 -48 28 -44 17 2 23 10 23 28 0 18 -6 26 -23 28
-13 2 -25 -3 -28 -12z"/>
<path d="M8494 336 c-10 -26 4 -48 28 -44 17 2 23 10 23 28 0 18 -6 26 -23 28
-13 2 -25 -3 -28 -12z"/>
</g>
</svg>
