<?xml version="1.0" standalone="no"?>
<!DOCTYPE svg PUBLIC "-//W3C//DTD SVG 20010904//EN"
 "http://www.w3.org/TR/2001/REC-SVG-20010904/DTD/svg10.dtd">
<svg version="1.0" xmlns="http://www.w3.org/2000/svg"
 width="200.000000pt" height="200.000000pt" viewBox="0 0 200.000000 200.000000"
 preserveAspectRatio="xMidYMid meet">

<g transform="translate(0.000000,200.000000) scale(0.100000,-0.100000)"
fill="#000000" stroke="none">
<path d="M930 1683 c-291 -315 -470 -668 -470 -922 0 -153 39 -251 139 -352
212 -213 590 -213 802 0 100 101 139 199 139 352 0 220 -128 503 -356 788 -81
100 -173 201 -184 201 -5 0 -36 -30 -70 -67z m155 -88 c206 -241 343 -479 391
-683 22 -89 22 -222 0 -294 -36 -125 -144 -235 -283 -288 -71 -28 -231 -38
-314 -21 -145 30 -275 126 -329 244 -122 262 8 624 379 1059 36 43 69 76 72
75 4 -1 42 -42 84 -92z"/>
<path d="M833 1016 c-24 -21 -28 -31 -28 -79 0 -45 5 -60 24 -81 39 -42 101
-34 126 15 55 105 -39 216 -122 145z m87 -37 c27 -49 -5 -131 -45 -115 -22 8
-36 53 -29 92 10 53 52 66 74 23z"/>
<path d="M997 830 c-93 -180 -106 -210 -89 -210 16 0 42 42 126 205 58 112
106 207 106 210 0 3 -8 5 -17 5 -13 0 -48 -58 -126 -210z"/>
<path d="M1086 799 c-18 -22 -26 -42 -26 -70 0 -69 32 -108 87 -109 77 0 113
121 54 181 -40 40 -81 39 -115 -2z m94 -30 c23 -41 0 -119 -35 -119 -26 0 -48
47 -42 88 10 59 53 76 77 31z"/>
</g>
</svg>
