<?xml version="1.0" standalone="no"?>
<!DOCTYPE svg PUBLIC "-//W3C//DTD SVG 20010904//EN"
 "http://www.w3.org/TR/2001/REC-SVG-20010904/DTD/svg10.dtd">
<svg version="1.0" xmlns="http://www.w3.org/2000/svg"
 width="512.000000pt" height="512.000000pt" viewBox="0 0 512.000000 512.000000"
 preserveAspectRatio="xMidYMid meet">

<g transform="translate(0.000000,512.000000) scale(0.100000,-0.100000)"
fill="#000000" stroke="none">
<path d="M1936 4174 c-32 -8 -89 -29 -125 -46 -91 -44 -216 -169 -259 -258
-37 -77 -62 -168 -62 -227 l0 -43 140 0 c140 0 140 0 140 23 0 13 7 46 15 73
70 238 374 319 550 148 69 -66 99 -140 100 -239 0 -71 -4 -88 -33 -147 -36
-73 -86 -123 -161 -160 l-46 -23 -747 -3 -748 -2 0 -131 0 -130 743 3 c735 3
743 3 807 25 213 73 368 250 406 466 54 301 -139 595 -441 672 -73 18 -200 18
-279 -1z"/>
<path d="M3580 4050 c-226 -19 -421 -121 -559 -292 -95 -117 -171 -312 -171
-440 l0 -48 143 0 142 0 13 78 c44 282 310 481 592 444 217 -29 396 -187 445
-393 62 -267 -79 -525 -343 -628 l-67 -26 -1537 -3 -1538 -2 0 -125 0 -125
1463 -2 c1751 -3 1636 -5 1722 17 145 35 319 142 406 247 130 157 189 319 189
519 0 133 -23 231 -87 359 -39 81 -60 109 -142 190 -78 78 -113 105 -188 143
-150 77 -296 103 -483 87z"/>
<path d="M700 2091 l0 -141 1088 -2 1087 -3 57 -27 c79 -37 142 -98 181 -177
30 -61 32 -73 32 -166 0 -89 -3 -106 -27 -156 -74 -150 -245 -240 -400 -209
-34 6 -84 23 -111 37 -93 47 -177 155 -192 249 -15 93 1 84 -150 84 l-135 0 0
-48 c0 -69 24 -155 72 -252 71 -146 206 -262 375 -321 85 -30 251 -37 345 -14
127 30 212 79 308 175 137 137 194 274 193 465 -3 292 -189 532 -485 623 -47
14 -171 17 -1145 19 l-1093 4 0 -140z"/>
</g>
</svg>
